#!OML:ASF F:\VICON\USERDATA\INSTALL\rory3\rory3.ASF
:FULLY-SPECIFIED
:DEGREES
324
root -1.56998 17.5868 -2.10933 163.931 -45.6463 -174.985
lowerback 18.7618 -3.5853 -3.05101
upperback -2.22215 -5.31379 1.73977
thorax -12.5916 -2.18928 5.21557
lowerneck -0.847995 -12.1771 -7.20913
upperneck 4.92501 -16.2576 2.11368
head 2.53382 -8.20793 1.36027
rclavicle -7.08419e-014 -3.97569e-015
rhumerus 41.5002 -7.79034 -40.3846
rradius 88.2912
rwrist 39.189
rhand -45.4264 26.1194
rfingers 7.12502
rthumb -18.194 -3.04973
lclavicle -7.08419e-014 -3.97569e-015
lhumerus 64.5734 -32.4073 71.5554
lradius 74.7682
lwrist 62.6999
lhand -14.3518 53.8741
lfingers 7.12502
lthumb 11.7899 -276.478
rfemur -7.22881 -5.85588 26.7391
rtibia 54.0255
rfoot -11.2612 -10.2011
rtoes -2.79742
lfemur -8.33477 -4.20778 -14.3228
ltibia 51.7836
lfoot -3.90189 -20.9424
ltoes 1.11237
325
root -1.54358 17.819 -2.13483 161.754 -45.5896 -172.369
lowerback 19.2967 -3.69595 -1.58491
upperback -2.18475 -5.0698 2.38845
thorax -12.9512 -2.1452 5.09852
lowerneck -1.22474 -12.2368 -6.92014
upperneck 5.36747 -16.3001 1.59506
head 2.67185 -8.23912 1.11469
rclavicle 4.05272e-014 -2.3556e-014
rhumerus 41.397 -8.07132 -40.6534
rradius 85.6538
rwrist 39.3555
rhand -46.4315 29.6579
rfingers 7.12502
rthumb -19.1607 0.581718
lclavicle 4.05272e-014 -2.3556e-014
lhumerus 64.5108 -32.8391 71.6082
lradius 74.2324
lwrist 63.0868
lhand -15.0407 54.232
lfingers 7.12502
lthumb 11.1255 -276.083
rfemur -5.91576 -5.40389 28.9344
rtibia 51.3359
rfoot -7.38073 -10.1796
rtoes -4.68727
lfemur -7.54315 -4.87584 -12.0452
ltibia 49.7999
lfoot 0.142089 -20.9403
ltoes -0.152941
326
root -1.54395 18.1071 -2.1539 162.489 -46.6663 -172.707
lowerback 18.8411 -3.84297 -1.8551
upperback -2.43382 -5.32761 2.31151
thorax -12.9331 -2.24406 5.21117
lowerneck -1.60537 -12.3752 -7.86654
upperneck 5.99759 -16.468 2.0139
head 3.10241 -8.33765 1.32211
rclavicle 1.98785e-016 3.98563e-014
rhumerus 41.3296 -8.39856 -41.1918
rradius 82.5201
rwrist 39.6236
rhand -46.9869 34.0274
rfingers 7.12502
rthumb -19.6947 5.00507
lclavicle 1.98785e-016 3.98563e-014
lhumerus 64.5187 -33.3732 71.4162
lradius 73.7624
lwrist 63.2068
lhand -15.8556 54.5616
lfingers 7.12502
lthumb 10.3395 -275.713
rfemur -5.37153 -4.79492 28.6186
rtibia 48.7481
rfoot -3.45891 -10.3609
rtoes -5.3477
lfemur -7.33842 -6.15383 -12.6069
ltibia 47.3979
lfoot 4.42398 -20.2437
ltoes -3.04879
327
root -1.56004 18.385 -2.14184 166.387 -48.6471 -176.395
lowerback 17.6733 -4.0102 -3.97186
upperback -2.84353 -6.07374 1.58048
thorax -12.5167 -2.47636 5.69177
lowerneck -1.62985 -12.3976 -7.88758
upperneck 5.91779 -16.4969 2.09087
head 3.09112 -8.3483 1.34863
rclavicle 8.62725e-014 1.90833e-014
rhumerus 41.6919 -8.7558 -41.9216
rradius 78.7395
rwrist 39.6315
rhand -48.3252 35.1261
rfingers 7.12502
rthumb -20.9808 6.24094
lclavicle 8.62725e-014 1.90833e-014
lhumerus 64.6974 -33.6489 71.0566
lradius 73.307
lwrist 63.2039
lhand -15.8023 55.203
lfingers 7.12502
lthumb 10.3909 -275.074
rfemur -5.76973 -5.08988 25.2618
rtibia 46.5486
rfoot 0.63152 -9.83219
rtoes -7.04023
lfemur -7.78768 -7.96448 -16.031
ltibia 44.6145
lfoot 9.64265 -18.3742
ltoes -3.7999
328
root -1.55661 18.6425 -2.16406 165.561 -49.0543 -175.329
lowerback 17.5332 -4.09073 -3.31515
upperback -2.75234 -6.00961 1.78556
thorax -12.3796 -2.49673 5.51484
lowerneck -2.28565 -12.3388 -7.73472
upperneck 5.32952 -16.3304 2.07571
head 2.98217 -8.24035 1.30867
rclavicle 3.49116e-014 -1.07344e-014
rhumerus 42.1692 -9.32146 -42.6549
rradius 74.3704
rwrist 39.5582
rhand -47.7737 36.2846
rfingers 7.12502
rthumb -20.4509 7.34158
lclavicle 3.49116e-014 -1.07344e-014
lhumerus 65.0416 -34.0075 70.6475
lradius 72.7404
lwrist 63.2543
lhand -15.5218 55.5391
lfingers 7.12502
lthumb 10.6615 -274.751
rfemur -4.86306 -4.33569 26.0773
rtibia 44.1206
rfoot 5.14912 -10.159
rtoes -8.99295
lfemur -6.98902 -8.69975 -15.255
ltibia 41.7721
lfoot 15.4747 -16.4339
ltoes -2.40158
329
root -1.55869 18.9087 -2.18515 165.707 -49.41 -175.138
lowerback 16.9258 -3.94403 -3.22749
upperback -2.74929 -5.77351 1.80687
thorax -12.0508 -2.41024 5.36615
lowerneck -2.27033 -12.4593 -8.66679
upperneck 6.05423 -16.5813 3.38168
head 3.48181 -8.3633 1.81474
rclavicle -1.04511e-013 -2.79292e-014
rhumerus 42.6586 -10.2192 -43.3987
rradius 69.5503
rwrist 39.8087
rhand -50.2904 35.8877
rfingers 7.12502
rthumb -22.8678 7.22351
lclavicle -1.04511e-013 -2.79292e-014
lhumerus 65.6564 -34.6944 70.2353
lradius 72.1294
lwrist 63.1411
lhand -15.6815 55.7523
lfingers 7.12502
lthumb 10.5074 -274.53
rfemur -4.51379 -3.02036 26.2937
rtibia 41.9932
rfoot 9.07149 -11.7205
rtoes -4.33786
lfemur -6.48752 -9.30335 -15.0893
ltibia 38.8341
lfoot 21.2247 -13.3837
ltoes 1.01511
330
root -1.55362 19.1686 -2.21227 165.883 -49.6012 -175.026
lowerback 16.3868 -3.74059 -3.31562
upperback -2.80071 -5.49975 1.84875
thorax -11.8094 -2.28621 5.34397
lowerneck -1.09756 -12.7046 -9.26401
upperneck 5.97489 -17.0838 4.25256
head 3.43283 -8.62646 2.23177
rclavicle -1.02871e-014 -9.93923e-016
rhumerus 43.5096 -11.1271 -44.3435
rradius 64.1248
rwrist 40.4112
rhand -45.3338 33.831
rfingers 7.12502
rthumb -18.1048 4.65364
lclavicle -1.02871e-014 -9.93923e-016
lhumerus 66.0967 -35.3369 69.95
lradius 71.6621
lwrist 62.884
lhand -16.0284 56.2328
lfingers 7.12502
lthumb 10.1727 -274.033
rfemur -4.05574 -1.42749 26.528
rtibia 39.6174
rfoot 11.8086 -15.1869
rtoes 4.34341
lfemur -6.20631 -9.55931 -14.8715
ltibia 36.3762
lfoot 25.7053 -10.4974
ltoes 3.22938
331
root -1.58009 19.4088 -2.13475 168.681 -50.7341 -177.527
lowerback 15.8583 -3.91957 -3.57893
upperback -3.25743 -5.85594 1.14444
thorax -12.0328 -2.44527 4.7803
lowerneck -0.242366 -12.8131 -9.68358
upperneck 5.79925 -17.3327 4.60841
head 3.31925 -8.76639 2.45988
rclavicle -3.05134e-014 -3.37934e-015
rhumerus 44.9374 -11.8027 -45.3444
rradius 58.1219
rwrist 40.9
rhand -41.2107 31.0987
rfingers 7.12502
rthumb -14.1347 1.59951
lclavicle -3.05134e-014 -3.37934e-015
lhumerus 66.2893 -35.5988 69.7241
lradius 71.1295
lwrist 62.7517
lhand -16.5217 56.3476
lfingers 7.12502
lthumb 9.69679 -273.896
rfemur -4.38538 -2.17183 23.8301
rtibia 37.5333
rfoot 14.7118 -16.5027
rtoes 7.85349
lfemur -6.70753 -10.3522 -17.0408
ltibia 34.1865
lfoot 28.3847 -8.36315
ltoes 1.58785
332
root -1.57503 19.645 -2.15257 168.263 -50.7219 -176.974
lowerback 15.619 -3.82238 -3.20617
upperback -3.23608 -5.62662 1.29037
thorax -11.9088 -2.36549 4.65353
lowerneck 0.190087 -12.8338 -10.0613
upperneck 5.4469 -17.4033 4.93937
head 3.20231 -8.80447 2.66371
rclavicle -7.606e-014 1.00386e-014
rhumerus 47.0511 -12.6286 -46.3475
rradius 51.0377
rwrist 41.8819
rhand -40.0874 29.1625
rfingers 7.12502
rthumb -13.0521 -0.4091
lclavicle -7.606e-014 1.00386e-014
lhumerus 66.65 -35.7618 69.4495
lradius 70.4266
lwrist 62.4677
lhand -17.3822 55.8884
lfingers 7.12502
lthumb 8.86652 -274.318
rfemur -3.66152 -0.693301 24.3906
rtibia 35.4113
rfoot 16.5353 -19.1577
rtoes 9.26391
lfemur -6.37732 -10.1821 -16.5767
ltibia 32.6883
lfoot 29.3062 -8.02935
ltoes -3.40116
333
root -1.57319 19.8652 -2.17316 167.577 -50.7901 -176.262
lowerback 15.3782 -3.67935 -2.8548
upperback -3.0603 -5.33094 1.53024
thorax -11.6016 -2.25868 4.61642
lowerneck -0.627207 -12.9093 -10.0386
upperneck 4.66096 -17.3537 4.96515
head 3.07486 -8.74296 2.63961
rclavicle -7.24322e-014 -1.72943e-014
rhumerus 49.7592 -13.6266 -47.1884
rradius 43.3188
rwrist 42.0501
rhand -39.2551 27.1289
rfingers 7.12502
rthumb -12.2496 -2.49236
lclavicle -7.24322e-014 -1.72943e-014
lhumerus 67.3216 -35.8986 69.2709
lradius 69.7193
lwrist 62.0989
lhand -17.7188 56.4671
lfingers 7.12502
lthumb 8.54172 -273.726
rfemur -2.85851 0.312856 24.9132
rtibia 33.6101
rfoot 17.7067 -21.1769
rtoes 11.2051
lfemur -5.97967 -9.80266 -16.0629
ltibia 31.7641
lfoot 28.8994 -7.22645
ltoes -6.96814
334
root -1.56309 20.0695 -2.19429 166.723 -50.795 -175.397
lowerback 15.309 -3.44739 -2.41338
upperback -2.85967 -4.90309 1.82088
thorax -11.3823 -2.08883 4.56856
lowerneck -0.362486 -13.3104 -9.23217
upperneck 4.01845 -17.837 3.95084
head 2.63952 -8.9792 2.20476
rclavicle 5.93372e-014 1.61016e-014
rhumerus 52.641 -14.6022 -47.239
rradius 35.2199
rwrist 41.6476
rhand -38.5864 24.6596
rfingers 7.12502
rthumb -11.6048 -4.99911
lclavicle 5.93372e-014 1.61016e-014
lhumerus 68.2066 -36.1029 69.2813
lradius 69.1838
lwrist 61.9118
lhand -18.5772 57.2771
lfingers 7.12502
lthumb 7.71327 -272.884
rfemur -2.08637 1.34441 25.5935
rtibia 31.9882
rfoot 18.5808 -22.6258
rtoes 13.9048
lfemur -5.65579 -9.26205 -15.4177
ltibia 31.4224
lfoot 27.218 -5.11689
ltoes -8.72786
335
root -1.552 20.2635 -2.18833 166.923 -51.0731 -175.411
lowerback 15.2536 -3.33686 -2.10111
upperback -2.8672 -4.68938 1.86847
thorax -11.3976 -2.00685 4.3911
lowerneck -0.522772 -13.6481 -8.81125
upperneck 3.91782 -18.2344 3.22452
head 2.5312 -9.17724 1.88473
rclavicle 4.02042e-014 4.96962e-015
rhumerus 55.1922 -15.6578 -48.1445
rradius 29.3031
rwrist 41.618
rhand -33.3225 18.9146
rfingers 7.12502
rthumb -6.52552 -10.9649
lclavicle 4.02042e-014 4.96962e-015
lhumerus 69.044 -36.1664 69.3004
lradius 68.6219
lwrist 61.8697
lhand -19.1159 58.2655
lfingers 7.12502
lthumb 7.19328 -271.877
rfemur -1.97206 2.20244 25.4942
rtibia 30.9033
rfoot 18.3504 -23.0398
rtoes 19.6985
lfemur -5.86078 -8.78766 -15.5582
ltibia 31.4038
lfoot 24.7569 -2.58273
ltoes -10.3778
336
root -1.54158 20.4446 -2.16247 167.67 -51.6264 -175.946
lowerback 15.1233 -3.45506 -2.02537
upperback -2.89423 -4.83286 1.8512
thorax -11.3474 -2.08247 4.35388
lowerneck -1.00735 -13.7444 -8.8577
upperneck 4.01387 -18.2921 2.81081
head 2.61031 -9.20776 1.71995
rclavicle -1.9133e-014 -1.39149e-015
rhumerus 58.3361 -16.7927 -50.3592
rradius 23.9118
rwrist 43.1758
rhand -22.6704 11.1384
rfingers 7.12502
rthumb 3.7614 -18.8082
lclavicle -1.9133e-014 -1.39149e-015
lhumerus 69.6874 -35.7246 69.2244
lradius 68.0724
lwrist 61.7179
lhand -19.482 59.0185
lfingers 7.12502
lthumb 6.83989 -271.112
rfemur -2.2205 2.63143 24.8591
rtibia 30.3414
rfoot 17.2772 -22.1058
rtoes 20.3014
lfemur -6.31225 -8.32408 -16.1842
ltibia 31.5891
lfoot 22.1749 0.0254252
ltoes -10.5941
337
root -1.5243 20.602 -2.14392 167.548 -52.1011 -175.705
lowerback 15.1317 -3.54257 -1.64289
upperback -2.67593 -4.85796 2.07242
thorax -11.1162 -2.12462 4.37448
lowerneck -1.40515 -13.9833 -9.2429
upperneck 3.46604 -18.531 2.65042
head 2.53195 -9.31793 1.7025
rclavicle -8.7018e-014 -1.59028e-014
rhumerus 61.6068 -18.9593 -55.1514
rradius 20.6607
rwrist 47.6912
rhand -8.92147 4.30939
rfingers 7.12502
rthumb 17.022 -24.9648
lclavicle -8.7018e-014 -1.59028e-014
lhumerus 70.5374 -35.2316 69.1634
lradius 67.7834
lwrist 61.5404
lhand -20.1036 59.8259
lfingers 7.12502
lthumb 6.23977 -270.286
rfemur -2.29412 2.75524 24.8782
rtibia 30.2152
rfoot 16.3211 -20.1978
rtoes 17.218
lfemur -6.4615 -7.72377 -16.1867
ltibia 31.8416
lfoot 19.8247 2.35725
ltoes -10.037
338
root -1.50562 20.7461 -2.11374 168.29 -52.6779 -176.329
lowerback 15.2663 -3.36618 -1.43651
upperback -2.798 -4.59785 1.89199
thorax -11.3845 -2.00917 4.01917
lowerneck -0.964767 -14.3152 -9.09853
upperneck 2.82012 -19.0152 2.82672
head 2.27009 -9.54731 1.76721
rclavicle 9.62118e-014 -5.96354e-015
rhumerus 65.0146 -21.9866 -62.0061
rradius 18.322
rwrist 52.8436
rhand 3.36758 0.522244
rfingers 7.12502
rthumb 28.8117 -27.2737
lclavicle 9.62118e-014 -5.96354e-015
lhumerus 71.2286 -35.676 69.1775
lradius 67.6486
lwrist 61.6357
lhand -20.6639 60.5126
lfingers 7.12502
lthumb 5.69884 -90.416
rfemur -2.52527 2.56598 24.2582
rtibia 30.0867
rfoot 16.5858 -17.1532
rtoes 10.1325
lfemur -6.95137 -7.09762 -16.8263
ltibia 32.3578
lfoot 17.606 3.75894
ltoes -11.7565
